<?xml version="1.0" encoding="utf-8"?>
<!-- Generator: Adobe Illustrator 27.5.0, SVG Export Plug-In . SVG Version: 6.00 Build 0)  -->
<svg version="1.1" xmlns="http://www.w3.org/2000/svg" xmlns:xlink="http://www.w3.org/1999/xlink" x="0px" y="0px"
	 viewBox="0 0 500 500" style="enable-background:new 0 0 500 500;" xml:space="preserve">
<g id="BACKGROUND">
	<rect style="fill:#FFFFFF;" width="500" height="500"/>
</g>
<g id="OBJECTS">
	<g>
		<g>
			<g>
				<g>
					<path style="fill:#0B4AAE;" d="M314.736,139.946c-26.787-6.697-64.736-6.525-64.736-6.525s-37.949-0.172-64.736,6.525
						c-26.788,6.697-31.252,25.471-31.252,40.708c0,18.843,0,35.19,0,75.372c0,40.181,27.326,60.154,54.851,81.562
						c13.713,10.665,29.464,19.807,41.138,19.807c11.674,0,25.902-7.618,41.138-19.807c27.229-21.783,54.851-41.381,54.851-81.562
						c0-40.181,0-56.529,0-75.372C345.989,165.417,341.524,146.643,314.736,139.946z"/>
					<path style="fill:#0B3E90;" d="M302.405,169.176C280.72,163.755,250,163.894,250,163.894s-30.72-0.139-52.405,5.282
						c-21.685,5.421-25.299,20.62-25.299,32.954c0,15.254,0,28.487,0,61.015c0,32.528,22.121,48.696,44.403,66.026
						c11.101,8.634,23.852,16.034,33.302,16.034c9.45,0,20.968-6.167,33.302-16.034c22.042-17.634,44.403-33.499,44.403-66.026
						c0-32.528,0-45.761,0-61.015C327.705,189.795,324.091,174.597,302.405,169.176z"/>
				</g>
				<path style="fill:#FFFFFF;" d="M339.413,271.146c0-11.987-9.718-21.705-21.705-21.705c-4.466,0-8.617,1.351-12.068,3.664
					c-2.441-3.46-6.461-5.727-11.017-5.727c-1.985,0-3.863,0.44-5.56,1.21c-3.147-7.51-10.565-12.787-19.218-12.787
					c-5.011,0-9.606,1.771-13.2,4.719c-3.721-6.609-10.798-11.075-18.922-11.075c-10.038,0-18.481,6.816-20.962,16.072
					c-1.35-0.363-2.763-0.574-4.228-0.574c-5.691,0-10.693,2.925-13.603,7.349c-3.686-5.909-10.225-9.854-17.702-9.854
					c-11.526,0-20.87,9.344-20.87,20.87c0,4.098,1.198,7.908,3.238,11.132c-2.52,3.67-3.997,8.112-3.997,12.9
					c0,12.604,10.218,22.822,22.822,22.822c1.689,0,3.333-0.189,4.918-0.537c2.525,7.168,9.338,12.314,17.369,12.314
					c6.226,0,11.72-3.096,15.057-7.824c2.747,4.56,7.731,7.619,13.443,7.619c6.088,0,11.356-3.472,13.961-8.538
					c0.05,0.009,0.1,0.015,0.15,0.023c2.038,6.306,7.951,10.87,14.936,10.87c6.935,0,12.809-4.502,14.888-10.738
					c2.73,4.199,7.454,6.981,12.835,6.981c5.847,0,10.925-3.28,13.503-8.099c3,1.733,6.472,2.741,10.186,2.741
					c11.273,0,20.411-9.138,20.411-20.411c0-2.698-0.536-5.268-1.487-7.625C336.788,282.979,339.413,277.371,339.413,271.146z"/>
				<g>
					<defs>
						<path id="SVGID_1_" d="M314.736,139.946c-26.787-6.697-64.736-6.525-64.736-6.525s-37.949-0.172-64.736,6.525
							c-26.788,6.697-31.252,25.471-31.252,40.708c0,18.843,0,35.19,0,75.372c0,40.181,27.326,60.154,54.851,81.562
							c13.713,10.665,29.464,19.807,41.138,19.807c11.674,0,25.902-7.618,41.138-19.807c27.229-21.783,54.851-41.381,54.851-81.562
							c0-40.181,0-56.529,0-75.372C345.989,165.417,341.524,146.643,314.736,139.946z"/>
					</defs>
					<clipPath id="SVGID_00000103952362027457282450000016251402074903349634_">
						<use xlink:href="#SVGID_1_"  style="overflow:visible;"/>
					</clipPath>
					<g style="clip-path:url(#SVGID_00000103952362027457282450000016251402074903349634_);">
						<g>
							<path style="fill:#5AA9FF;" d="M286.762,199.025c0.87,0.341,1.41,1.201,1.355,2.135c-0.253,4.299-0.545,16.528,4.192,17.74
								c2.158,0.552,3.851,0.914,5.124,1.151c1.413,0.263,2.179,1.793,1.526,3.074c-1.763,3.455-4.024,9.743-0.979,15.357
								c2.121,3.91,1.983,6.441,1.25,8.022c-0.71,1.531-2.836,1.674-3.754,0.257c-3.671-5.667-13.649-21.912-17.488-36.691
								C274.171,195.378,283.114,197.594,286.762,199.025z"/>
							<path style="fill:#5AA9FF;" d="M316.578,182.82c0.561,0.019,1.145,0.56,1.085,1.085c-0.911,7.924-0.911,7.924-1.02,17.46
								c-0.006,0.522-0.621,0.935-1.155,0.847c-3.472-0.573-14.117-0.968-17.669-1.049v-18.579
								C301.71,182.626,312.692,182.69,316.578,182.82z"/>
							<path style="fill:#98D5FF;" d="M193.05,211.839c0.831-2.528,1.827-4.997,3.002-7.385c4.295-8.723,10.669-17.458,20.269-20.12
								c7.777-2.157,18.443-2.157,29.575-2.038c9.448,0.101,44.059,0.204,51.923,0.288v18.579
								c-7.616-0.175-15.224,1.101-22.006,5.218c-3.615,2.194-6.291,5.5-8.024,9.331c-1.719,3.8-2.511,17.396-2.88,21.538
								c0.205,0.448,0.167,0.984-0.103,1.345c-0.015,0.217-0.034,0.434-0.047,0.651c-0.042,0.699-1.186,0.348-1.177-0.251
								c0-0.015,0.001-0.031-0.014-0.048c-9.797-2.457-20.066-2.387-29.85,0.089c-1.088,0.275-1.951,0.479-2.001-0.485
								c-0.51-9.807-1.086-16.519-1.587-20.45c-0.406-3.188-5.571-12.089-12.705-7.76c-2.928,1.777-5.055,4.638-6.85,7.545
								c-2.086,3.379-3.562,7.088-4.843,10.834c-0.223,0.652-1.202,0.633-1.663,0.322c-2.461-1.661-4.922-3.322-7.383-4.982
								c-1.902-1.284-4.487-2.504-5.073-4.932C191.057,216.824,192.341,213.997,193.05,211.839z"/>
							<path style="fill:#5AA9FF;" d="M229.606,242.875c0.194-4.212,0.397-8.621,1.091-12.721h35
								c0.694,4.1,0.897,8.509,1.091,12.721c0.267,5.815,0.371,11.668,0.298,17.506h-37.777
								C229.235,254.543,229.339,248.69,229.606,242.875z"/>
							<g>
								<path style="fill:#2184F9;" d="M234.695,258.019h-1.364c-0.275,0-0.5-0.225-0.5-0.5V234.88c0-0.275,0.225-0.5,0.5-0.5h1.364
									c0.275,0,0.5,0.225,0.5,0.5v22.639C235.195,257.794,234.97,258.019,234.695,258.019z"/>
								<path style="fill:#2184F9;" d="M239.423,258.019h-1.364c-0.275,0-0.5-0.225-0.5-0.5V234.88c0-0.275,0.225-0.5,0.5-0.5h1.364
									c0.275,0,0.5,0.225,0.5,0.5v22.639C239.923,257.794,239.698,258.019,239.423,258.019z"/>
								<path style="fill:#2184F9;" d="M244.151,258.019h-1.364c-0.275,0-0.5-0.225-0.5-0.5V234.88c0-0.275,0.225-0.5,0.5-0.5h1.364
									c0.275,0,0.5,0.225,0.5,0.5v22.639C244.651,257.794,244.426,258.019,244.151,258.019z"/>
								<path style="fill:#2184F9;" d="M248.879,258.019h-1.364c-0.275,0-0.5-0.225-0.5-0.5V234.88c0-0.275,0.225-0.5,0.5-0.5h1.364
									c0.275,0,0.5,0.225,0.5,0.5v22.639C249.379,257.794,249.154,258.019,248.879,258.019z"/>
								<path style="fill:#2184F9;" d="M253.607,258.019h-1.364c-0.275,0-0.5-0.225-0.5-0.5V234.88c0-0.275,0.225-0.5,0.5-0.5h1.364
									c0.275,0,0.5,0.225,0.5,0.5v22.639C254.107,257.794,253.882,258.019,253.607,258.019z"/>
								<path style="fill:#2184F9;" d="M258.335,258.019h-1.364c-0.275,0-0.5-0.225-0.5-0.5V234.88c0-0.275,0.225-0.5,0.5-0.5h1.364
									c0.275,0,0.5,0.225,0.5,0.5v22.639C258.835,257.794,258.609,258.019,258.335,258.019z"/>
								<path style="fill:#2184F9;" d="M263.062,258.019h-1.364c-0.275,0-0.5-0.225-0.5-0.5V234.88c0-0.275,0.225-0.5,0.5-0.5h1.364
									c0.275,0,0.5,0.225,0.5,0.5v22.639C263.562,257.794,263.337,258.019,263.062,258.019z"/>
							</g>
							<g>
								<path style="fill:#FFFFFF;" d="M196.673,217.032c-0.065,0-0.131-0.011-0.196-0.035c-0.297-0.108-0.451-0.437-0.343-0.735
									c0.235-0.648,5.845-15.951,12.455-21.572c8.917-7.582,19.732-7.617,29.273-7.647c2.23-0.007,4.335-0.014,6.398-0.107
									c11.078-0.502,47.041-0.256,47.403-0.254c0.317,0.002,0.572,0.261,0.569,0.578c-0.002,0.315-0.258,0.57-0.573,0.57
									c-0.001,0-0.003,0-0.004,0c-0.362-0.003-36.296-0.249-47.343,0.253c-2.088,0.095-4.205,0.101-6.447,0.108
									c-9.802,0.031-19.937,0.064-28.533,7.374c-6.38,5.424-12.064,20.934-12.121,21.089
									C197.127,216.887,196.907,217.032,196.673,217.032z"/>
							</g>
							<g>
								<path style="fill:#FFFFFF;" d="M313.23,198.746c-0.316,0-0.571-0.256-0.571-0.571v-12.189c0-0.315,0.256-0.571,0.571-0.571
									c0.315,0,0.571,0.256,0.571,0.571v12.189C313.802,198.49,313.546,198.746,313.23,198.746z"/>
							</g>
							<g>
								<path style="fill:#FFFFFF;" d="M297.232,244.455c-0.205,0-0.403-0.111-0.506-0.305c-0.044-0.084-4.471-8.49-8.992-17.533
									c-4.541-9.083-7.024-17.533-7.049-17.618c-0.088-0.303,0.086-0.62,0.389-0.708c0.307-0.09,0.62,0.086,0.709,0.389
									c0.024,0.083,2.48,8.439,6.973,17.426c4.517,9.031,8.938,17.427,8.982,17.51c0.147,0.279,0.04,0.625-0.239,0.772
									C297.414,244.434,297.322,244.455,297.232,244.455z"/>
							</g>
							<g>
								<path style="fill:#FFFFFF;" d="M262.951,226.172h-28.949c-0.316,0-0.571-0.256-0.571-0.571c0-0.316,0.256-0.571,0.571-0.571
									h28.949c0.315,0,0.571,0.256,0.571,0.571C263.522,225.916,263.267,226.172,262.951,226.172z"/>
							</g>
						</g>
						<g>
							<path style="fill:#98D5FF;" d="M263.642,258.822h-31.002c-7.867,0-14.245,6.378-14.245,14.245v0.113
								c0,0.766,0.621,1.387,1.387,1.387h56.83c0.766,0,1.387-0.621,1.387-1.387C278,265.25,271.572,258.822,263.642,258.822z"/>
							<path style="fill:#5AA9FF;" d="M264.184,265.976h-32.089c-8.143,0-14.744,6.172-14.744,13.785v0.109
								c0,0.741,0.643,1.342,1.436,1.342h58.823c0.793,0,1.436-0.601,1.436-1.342C279.045,272.197,272.391,265.976,264.184,265.976z
								"/>
						</g>
						<g>
							<path style="fill:#98D5FF;" d="M312.69,401.966c-2.971-15.847-20.818-110.558-23.387-117.468
								c-2.569-6.91-12.331-13.82-21.58-13.82c-9.249,0-19.525,0-19.525,0s-10.276,0-19.525,0c-9.249,0-19.011,6.91-21.58,13.82
								c-2.569,6.91-20.416,101.621-23.387,117.468c-6.91,36.853,13.82,48.369,27.64,48.369c23.121,0,36.853,0,36.853,0
								s13.731,0,36.853,0C298.87,450.335,319.6,438.819,312.69,401.966z"/>
							<path style="fill:#BBE2FF;" d="M293.047,381.655c-2.066-11.02-14.477-76.884-16.264-81.69
								c-1.786-4.805-8.575-9.611-15.007-9.611c-6.432,0-13.578,0-13.578,0s-7.146,0-13.578,0c-6.432,0-13.221,4.805-15.007,9.611
								c-1.786,4.805-14.198,70.67-16.264,81.69c-4.805,25.628,9.611,33.637,19.221,33.637c16.079,0,25.628,0,25.628,0
								s9.549,0,25.628,0C283.437,415.292,297.852,407.283,293.047,381.655z"/>
						</g>
					</g>
					<path style="clip-path:url(#SVGID_00000103952362027457282450000016251402074903349634_);fill:#FFFFFF;" d="M293.795,306.271
						c-4.715,0-9.039,1.667-12.419,4.442c-3.499-6.215-10.148-10.419-17.788-10.419c-9.439,0-17.359,6.416-19.693,15.119
						c-1.276-0.345-2.611-0.545-3.996-0.545c-5.352,0-10.056,2.751-12.792,6.911c-3.466-5.557-9.616-9.266-16.647-9.266
						c-10.839,0-19.626,8.787-19.626,19.626c0,10.839,8.787,19.626,19.626,19.626c0.426,0,0.842-0.037,1.26-0.064
						c1.536,8.628,9.058,15.184,18.127,15.184c4.112,0,7.896-1.363,10.962-3.639c3.33,3.96,8.315,6.482,13.894,6.482
						c7.756,0,14.357-4.874,16.956-11.718c0.926,0.216,1.887,0.341,2.879,0.341c7.002,0,12.679-5.676,12.679-12.679
						c0-0.476-0.031-0.945-0.082-1.407c2.082,0.754,4.318,1.186,6.66,1.186c10.819,0,19.59-8.771,19.59-19.59
						C313.385,315.042,304.615,306.271,293.795,306.271z"/>
				</g>
			</g>
			<g>
				<g>
					<path style="fill:#77B7FF;" d="M250,365.013c-15.115,0-33.257-11.645-45.815-21.413l-2.471-1.919
						c-27.197-21.116-55.32-42.95-55.32-85.655v-75.372c0-25.774,12.456-41.957,37.022-48.098
						c27.398-6.85,65.047-6.754,66.618-6.752c1.53-0.003,39.148-0.098,66.55,6.752l0,0c24.566,6.142,37.022,22.324,37.022,48.098
						v75.372c0,41.628-27.044,63.126-53.198,83.916c-1.502,1.194-3.007,2.391-4.512,3.594
						C277.833,357.987,262.819,365.013,250,365.013z M249.88,141.038c-2.649,0-38.064,0.121-62.769,6.298
						c-17.623,4.406-25.481,14.681-25.481,33.317v75.372c0,35.245,22.905,53.028,49.428,73.62l2.481,1.928
						c14.872,11.568,28.161,18.203,36.461,18.203c6.253,0,17.64-3.146,36.379-18.138c1.517-1.214,3.034-2.42,4.549-3.624
						c25.457-20.236,47.442-37.714,47.442-71.989v-75.372c0-18.636-7.858-28.911-25.481-33.317
						c-25.564-6.391-62.475-6.301-62.854-6.297C250.02,141.039,249.969,141.038,249.88,141.038z"/>
				</g>
				<g>
					<path style="fill:#ABE3FF;" d="M250,358.156c-13.865,0-32.019-12.511-41.605-19.968l-2.477-1.924
						c-27.085-21.029-52.668-40.892-52.668-80.239v-75.372c0-22.535,10.411-36.092,31.829-41.447
						c26.569-6.642,64.527-6.552,64.925-6.547c0.384-0.005,38.342-0.096,64.917,6.547l0,0c21.418,5.355,31.829,18.912,31.829,41.447
						v75.372c0,38.319-24.582,57.86-50.608,78.549c-1.507,1.198-3.019,2.399-4.528,3.607
						C275.047,351.435,261.046,358.156,250,358.156z M249.835,134.182c-2.782,0-38.901,0.131-64.387,6.502
						c-20.641,5.16-30.675,18.234-30.675,39.968v75.372c0,38.602,25.297,58.242,52.079,79.035l2.478,1.925
						c9.433,7.338,27.26,19.647,40.67,19.647c10.691,0,24.371-6.608,40.662-19.641c1.511-1.209,3.023-2.411,4.531-3.61
						c25.73-20.453,50.033-39.772,50.033-77.356v-75.372c0-21.734-10.034-34.808-30.675-39.968
						c-26.388-6.597-64.165-6.506-64.548-6.502C249.99,134.182,249.934,134.182,249.835,134.182z"/>
				</g>
			</g>
			<g>
				<path style="fill:#FFFFFF;" d="M216.826,160.201c1.496-3.002,5.143-4.223,8.145-2.726c3.002,1.497,4.222,5.143,2.726,8.145
					c-1.497,3.002-5.143,4.222-8.145,2.726C216.55,166.849,215.33,163.202,216.826,160.201z"/>
				<g>
					<path style="fill:#98D5FF;" d="M194.045,162.841c2.453-0.463,4.357-2.555,4.685-5.2c0.061-0.494,0.913-0.492,0.975,0
						c0.335,2.646,2.278,4.738,4.78,5.2c0.564,0.104,0.576,1.113,0,1.207c-2.527,0.41-4.431,2.453-4.835,5.082
						c-0.017,0.114-0.08,0.211-0.171,0.274c-0.247,0.171-0.645,0.064-0.696-0.274c-0.396-2.629-2.262-4.672-4.739-5.082
						C193.481,163.954,193.492,162.945,194.045,162.841z"/>
				</g>
				<g>
					<path style="fill:#98D5FF;" d="M183.385,233.349c1.735-0.327,3.082-1.807,3.314-3.678c0.043-0.349,0.645-0.348,0.689,0
						c0.237,1.871,1.611,3.351,3.381,3.678c0.399,0.074,0.407,0.787,0,0.853c-1.788,0.29-3.134,1.735-3.42,3.594
						c-0.012,0.081-0.057,0.149-0.121,0.194c-0.175,0.121-0.456,0.046-0.492-0.194c-0.28-1.859-1.6-3.304-3.352-3.594
						C182.986,234.136,182.994,233.423,183.385,233.349z"/>
				</g>
				<g>
					<path style="fill:#98D5FF;" d="M326.606,193.735c1.735-0.327,3.082-1.807,3.314-3.678c0.043-0.349,0.646-0.348,0.69,0
						c0.237,1.871,1.611,3.351,3.381,3.678c0.399,0.074,0.407,0.787,0,0.853c-1.788,0.29-3.134,1.735-3.42,3.594
						c-0.012,0.081-0.057,0.149-0.121,0.194c-0.175,0.121-0.456,0.045-0.492-0.194c-0.28-1.859-1.6-3.304-3.352-3.594
						C326.207,194.522,326.215,193.808,326.606,193.735z"/>
				</g>
				<g>
					<path style="fill:#98D5FF;" d="M273.244,158.948c1.926-0.363,3.421-2.006,3.679-4.083c0.048-0.388,0.716-0.387,0.765,0
						c0.263,2.077,1.788,3.72,3.753,4.083c0.443,0.082,0.452,0.874,0,0.947c-1.984,0.322-3.479,1.926-3.796,3.99
						c-0.014,0.089-0.063,0.166-0.134,0.215c-0.194,0.134-0.506,0.05-0.546-0.215c-0.311-2.064-1.776-3.668-3.721-3.99
						C272.801,159.822,272.809,159.03,273.244,158.948z"/>
				</g>
				<circle style="fill:#FFFFFF;" cx="182.617" cy="180.997" r="11.009"/>
				<circle style="fill:#FFFFFF;" cx="322.717" cy="225.6" r="11.918"/>
				<circle style="fill:#FFFFFF;" cx="302.13" cy="167.588" r="7.423"/>
				<path style="fill:#FFFFFF;" d="M178.065,221.046c0,3.689-2.991,6.68-6.681,6.68c-3.69,0-6.68-2.991-6.68-6.68
					c0-3.69,2.991-6.681,6.68-6.681C175.074,214.365,178.065,217.356,178.065,221.046z"/>
			</g>
		</g>
		<g>
			<g>
				<path id="SVGID_x5F_00000044138644964003805400000001226970927886693537_x5F_" style="fill:none;" d="M96.875,265.976
					c0,84.568,68.556,153.124,153.125,153.124c84.568,0,153.125-68.556,153.125-153.124"/>
				<text>				<textPath  xlink:href="#SVGID_x5F_00000044138644964003805400000001226970927886693537_x5F_" startOffset="8.484%">
<tspan  style="fill:#0B4AAE; font-family:'Montserrat-Black'; font-size:50.3423px; letter-spacing:60;">service</tspan>				</textPath>
</text>
			</g>
			<circle style="fill:#77B7FF;" cx="121.225" cy="324.101" r="8.892"/>
			<circle style="fill:#77B7FF;" cx="376.825" cy="324.101" r="8.892"/>
		</g>
		<g>
			<g>
				<path id="SVGID_x5F_00000165233803815149768870000004462067909120911247_x5F_" style="fill:none;" d="M35.168,319.733
					c0-118.648,96.183-214.832,214.831-214.832s214.832,96.183,214.832,214.832"/>
				<text>				<textPath  xlink:href="#SVGID_x5F_00000165233803815149768870000004462067909120911247_x5F_" startOffset="8.264%">
<tspan  style="fill:#0B4AAE; font-family:'Montserrat-Bold'; font-size:41.1379px; letter-spacing:20;">cleaning</tspan>				</textPath>
</text>
			</g>
			<circle style="fill:#77B7FF;" cx="121.225" cy="139.234" r="8.892"/>
			<circle style="fill:#77B7FF;" cx="376.825" cy="139.234" r="8.892"/>
		</g>
	</g>
</g>
</svg>
